<?xml version='1.0' encoding='utf-8'?>
<svg xmlns="http://www.w3.org/2000/svg" version="1.1" viewBox="0 0 480 480"> <g transform="translate(7159 -1074.1)"> <rect x="-7159" y="1074.1" width="480" height="480" rx="37.5" ry="37.5" fill="#241f31" fill-rule="evenodd"/> <g stroke-linecap="round" stroke-linejoin="round"> <path transform="matrix(.68702 .68702 .68702 -.68702 -7088.2 1350.9)" d="m73.249 222.69h46.315" fill="none" stroke="#613583" stroke-width="15.438"/> <path transform="matrix(.68702 .68702 .68702 -.68702 -6988.2 1250.9)" d="m73.249 222.69h46.315" fill="#8ff0a4" fill-rule="evenodd" stroke="#c061cb" stroke-width="15.438"/> <path transform="matrix(.68702 .68702 .68702 -.68702 -7188.2 1450.9)" d="m73.249 222.69h46.315" fill="none" stroke="#c061cb" stroke-width="15.438"/> <path transform="matrix(.68702 .68702 .68702 -.68702 -7288.2 1550.9)" d="m73.249 222.69h46.315" fill="none" stroke="#613583" stroke-width="15.438"/> <path d="m-6889 1214.1c-16.62 0-30 13.38-30 30" fill="none" stroke="#613583" stroke-width="15"/> <path d="m-6989 1314.1c-16.62 0-30 13.38-30 30" fill="none" stroke="#c061cb" stroke-width="15"/> <path d="m-7089 1414.1c-16.62 0-30 13.38-30 30" fill="none" stroke="#613583" stroke-width="15"/> <path d="m-6749 1214.1c16.62 0 30-13.38 30-30" fill="none" stroke="#613583" stroke-width="15"/> <path d="m-7049 1514.1c16.62 0 30-13.38 30-30" fill="none" stroke="#c061cb" stroke-width="15"/> <path d="m-6849 1314.1c16.62 0 30-13.38 30-30" fill="none" stroke="#c061cb" stroke-width="15"/> <path d="m-6949 1414.1c16.62 0 30-13.38 30-30" fill="none" stroke="#613583" stroke-width="15"/> <path d="m-6789 1114.1c-16.62 0-30 13.38-30 30" fill="none" stroke="#c061cb" stroke-width="15"/> <path transform="rotate(90 -6519 914.15)" d="m-6019 1344.1v140" fill="none" stroke="#613583" stroke-width="15"/> <path transform="translate(-1e3 -.00010715)" d="m-6019 1344.1v140" fill="none" stroke="#c061cb" stroke-width="15"/> <path transform="rotate(90 -6419 914.15)" d="m-6019 1344.1v140" fill="none" stroke="#c061cb" stroke-width="15"/> <path transform="rotate(90 -6319 914.15)" d="m-6019 1344.1v140" fill="none" stroke="#613583" stroke-width="15"/> <path transform="translate(-900 -100)" d="m-6019 1344.1v140" fill="none" stroke="#613583" stroke-width="15"/> <path transform="translate(-800 -200)" d="m-6019 1344.1v140" fill="none" stroke="#c061cb" stroke-width="15"/> </g> </g> </svg>